<?xml version="1.0" standalone="no"?>
<!DOCTYPE svg PUBLIC "-//W3C//DTD SVG 20010904//EN"
 "http://www.w3.org/TR/2001/REC-SVG-20010904/DTD/svg10.dtd">
<svg version="1.0" xmlns="http://www.w3.org/2000/svg"
 width="423.000000pt" height="509.000000pt" viewBox="0 0 423.000000 509.000000"
 preserveAspectRatio="xMidYMid meet">

<g transform="translate(0.000000,509.000000) scale(0.100000,-0.100000)"
fill="#000000" stroke="none">
<path d="M2002 4658 l-102 -102 19 -20 c28 -30 51 -89 51 -131 0 -39 -27 -100
-57 -127 -53 -49 -148 -61 -212 -28 -75 38 -108 100 -99 190 3 31 0 40 -12 40
-8 0 -66 -41 -128 -90 l-112 -91 24 -42 c14 -23 78 -136 144 -252 l120 -210
469 -3 469 -2 138 246 c76 135 134 250 129 254 -67 63 -228 190 -237 187 -6
-2 -9 -15 -7 -28 15 -105 -14 -170 -91 -208 -110 -53 -237 5 -269 122 -13 49
-2 95 37 152 l25 38 -38 41 c-22 23 -66 69 -99 104 l-59 62 -103 -102z"/>
<path d="M1640 3586 l0 -44 50 -7 c95 -13 162 -89 189 -213 8 -37 11 -379 11
-1162 0 -921 -2 -1110 -13 -1110 -8 0 -58 22 -113 49 -328 161 -590 501 -670
870 -23 108 -28 320 -10 437 40 267 173 493 366 624 72 49 138 78 234 105 84
23 95 36 81 93 -7 29 -21 28 -146 -9 -119 -35 -273 -105 -374 -171 -511 -331
-695 -957 -433 -1473 133 -263 373 -466 698 -590 88 -34 295 -85 343 -85 38 0
41 -15 17 -81 -31 -82 -100 -144 -170 -154 l-50 -7 0 -44 0 -44 465 0 465 0 0
44 0 43 -48 7 c-91 12 -158 82 -187 194 -13 50 -15 213 -13 1149 l3 1092 81
-38 c336 -158 615 -505 700 -871 59 -253 36 -516 -63 -715 -112 -225 -311
-390 -533 -443 l-70 -17 0 -47 c0 -55 -2 -54 90 -33 248 58 500 193 654 349
410 415 444 1058 82 1515 -58 73 -201 191 -317 261 -146 88 -364 165 -544 191
-44 6 -84 15 -88 19 -13 12 22 131 50 173 32 46 92 82 151 92 l42 7 0 44 0 44
-465 0 -465 0 0 -44z"/>
</g>
</svg>
